<svg xmlns="http://www.w3.org/2000/svg" viewBox="0 0 1280 720">
  <defs>
    <linearGradient id="bgGradient" x1="0%" y1="0%" x2="0%" y2="100%">
      <stop offset="0%" style="stop-color:#f8fafc;stop-opacity:1" />
      <stop offset="100%" style="stop-color:#e2e8f0;stop-opacity:1" />
    </linearGradient>
    <linearGradient id="accentGradient" x1="0%" y1="0%" x2="100%" y2="0%">
      <stop offset="0%" style="stop-color:#0066cc;stop-opacity:1" />
      <stop offset="100%" style="stop-color:#00d4ff;stop-opacity:1" />
    </linearGradient>
  </defs>
  
  
  <rect width="1280" height="720" fill="url(#bgGradient)" />
  
  
  <rect x="0" y="0" width="1280" height="120" fill="#1e3a5f" />
  <text x="60" y="75" font-family="Microsoft YaHei, Arial, sans-serif" font-size="24" fill="#ffffff" font-weight="500">
    2026 AI Development Trends
  </text>
  
  
  <text x="640" y="180" text-anchor="middle" font-family="Microsoft YaHei, Arial, sans-serif" font-size="42" font-weight="bold" fill="#1e3a5f">
    目录 / CONTENTS
  </text>
  
  
  <g transform="translate(180, 240)">
    
    <path fill="#ffffff" filter="drop-shadow(0 4px 6px rgba(0,0,0,0.1))" d="M8,0 H412 A8,8 0 0 1 420,8 V132 A8,8 0 0 1 412,140 H8 A8,8 0 0 1 0,132 V8 A8,8 0 0 1 8,0 Z" />
    <path fill="url(#accentGradient)" d="M3,0 H3 A3,3 0 0 1 6,3 V137 A3,3 0 0 1 3,140 H3 A3,3 0 0 1 0,137 V3 A3,3 0 0 1 3,0 Z" />
    <text x="30" y="45" font-family="Microsoft YaHei, Arial, sans-serif" font-size="28" font-weight="bold" fill="#1e3a5f">01</text>
    <text x="30" y="85" font-family="Microsoft YaHei, Arial, sans-serif" font-size="20" fill="#475569">大模型进化方向</text>
    <text x="30" y="115" font-family="Arial, sans-serif" font-size="14" fill="#94a3b8">LLM Evolution</text>
  </g>
  
  <g transform="translate(680, 240)">
    
    <path fill="#ffffff" filter="drop-shadow(0 4px 6px rgba(0,0,0,0.1))" d="M8,0 H412 A8,8 0 0 1 420,8 V132 A8,8 0 0 1 412,140 H8 A8,8 0 0 1 0,132 V8 A8,8 0 0 1 8,0 Z" />
    <path fill="url(#accentGradient)" d="M3,0 H3 A3,3 0 0 1 6,3 V137 A3,3 0 0 1 3,140 H3 A3,3 0 0 1 0,137 V3 A3,3 0 0 1 3,0 Z" />
    <text x="30" y="45" font-family="Microsoft YaHei, Arial, sans-serif" font-size="28" font-weight="bold" fill="#1e3a5f">02</text>
    <text x="30" y="85" font-family="Microsoft YaHei, Arial, sans-serif" font-size="20" fill="#475569">多模态 AI 应用</text>
    <text x="30" y="115" font-family="Arial, sans-serif" font-size="14" fill="#94a3b8">Multimodal AI</text>
  </g>
  
  <g transform="translate(180, 420)">
    
    <path fill="#ffffff" filter="drop-shadow(0 4px 6px rgba(0,0,0,0.1))" d="M8,0 H412 A8,8 0 0 1 420,8 V132 A8,8 0 0 1 412,140 H8 A8,8 0 0 1 0,132 V8 A8,8 0 0 1 8,0 Z" />
    <path fill="url(#accentGradient)" d="M3,0 H3 A3,3 0 0 1 6,3 V137 A3,3 0 0 1 3,140 H3 A3,3 0 0 1 0,137 V3 A3,3 0 0 1 3,0 Z" />
    <text x="30" y="45" font-family="Microsoft YaHei, Arial, sans-serif" font-size="28" font-weight="bold" fill="#1e3a5f">03</text>
    <text x="30" y="85" font-family="Microsoft YaHei, Arial, sans-serif" font-size="20" fill="#475569">AI 与行业融合</text>
    <text x="30" y="115" font-family="Arial, sans-serif" font-size="14" fill="#94a3b8">Industry Integration</text>
  </g>
  
  <g transform="translate(680, 420)">
    
    <path fill="#ffffff" filter="drop-shadow(0 4px 6px rgba(0,0,0,0.1))" d="M8,0 H412 A8,8 0 0 1 420,8 V132 A8,8 0 0 1 412,140 H8 A8,8 0 0 1 0,132 V8 A8,8 0 0 1 8,0 Z" />
    <path fill="url(#accentGradient)" d="M3,0 H3 A3,3 0 0 1 6,3 V137 A3,3 0 0 1 3,140 H3 A3,3 0 0 1 0,137 V3 A3,3 0 0 1 3,0 Z" />
    <text x="30" y="45" font-family="Microsoft YaHei, Arial, sans-serif" font-size="28" font-weight="bold" fill="#1e3a5f">04</text>
    <text x="30" y="85" font-family="Microsoft YaHei, Arial, sans-serif" font-size="20" fill="#475569">边缘 AI 部署</text>
    <text x="30" y="115" font-family="Arial, sans-serif" font-size="14" fill="#94a3b8">Edge AI</text>
  </g>
  
  <g transform="translate(180, 600)">
    
    <path fill="#ffffff" filter="drop-shadow(0 4px 6px rgba(0,0,0,0.1))" d="M8,0 H412 A8,8 0 0 1 420,8 V72 A8,8 0 0 1 412,80 H8 A8,8 0 0 1 0,72 V8 A8,8 0 0 1 8,0 Z" />
    <path fill="url(#accentGradient)" d="M3,0 H3 A3,3 0 0 1 6,3 V77 A3,3 0 0 1 3,80 H3 A3,3 0 0 1 0,77 V3 A3,3 0 0 1 3,0 Z" />
    <text x="30" y="35" font-family="Microsoft YaHei, Arial, sans-serif" font-size="24" font-weight="bold" fill="#1e3a5f">05</text>
    <text x="85" y="50" font-family="Microsoft YaHei, Arial, sans-serif" font-size="20" fill="#475569">AI 安全与治理</text>
  </g>
  
  <g transform="translate(680, 600)">
    
    <path fill="#ffffff" filter="drop-shadow(0 4px 6px rgba(0,0,0,0.1))" d="M8,0 H412 A8,8 0 0 1 420,8 V72 A8,8 0 0 1 412,80 H8 A8,8 0 0 1 0,72 V8 A8,8 0 0 1 8,0 Z" />
    <path fill="url(#accentGradient)" d="M3,0 H3 A3,3 0 0 1 6,3 V77 A3,3 0 0 1 3,80 H3 A3,3 0 0 1 0,77 V3 A3,3 0 0 1 3,0 Z" />
    <text x="30" y="35" font-family="Microsoft YaHei, Arial, sans-serif" font-size="24" font-weight="bold" fill="#1e3a5f">06</text>
    <text x="85" y="50" font-family="Microsoft YaHei, Arial, sans-serif" font-size="20" fill="#475569">投资与市场展望</text>
  </g>
</svg>