<svg xmlns="http://www.w3.org/2000/svg" viewBox="0 0 1280 720">
  <defs>
    <linearGradient id="bgGradient" x1="0%" y1="0%" x2="100%" y2="100%">
      <stop offset="0%" style="stop-color:#1e3a5f;stop-opacity:1" />
      <stop offset="100%" style="stop-color:#0f172a;stop-opacity:1" />
    </linearGradient>
    <linearGradient id="accentGradient" x1="0%" y1="0%" x2="100%" y2="0%">
      <stop offset="0%" style="stop-color:#00d4ff;stop-opacity:1" />
      <stop offset="100%" style="stop-color:#0066cc;stop-opacity:1" />
    </linearGradient>
  </defs>
  
  
  <rect width="1280" height="720" fill="url(#bgGradient)" />
  
  
  <rect x="0" y="0" width="1280" height="80" fill="#0f172a" />
  <text x="60" y="52" font-family="Microsoft YaHei, Arial, sans-serif" font-size="28" fill="#ffffff" font-weight="500">
    2026 AI Development Trends
  </text>
  
  
  <text x="640" y="180" text-anchor="middle" font-family="Arial, sans-serif" font-size="120" font-weight="bold" fill="#1e3a5f" opacity="0.3">01</text>
  
  
  <text x="640" y="240" text-anchor="middle" font-family="Microsoft YaHei, Arial, sans-serif" font-size="48" font-weight="bold" fill="#ffffff">
    大模型进化方向
  </text>
  <text x="640" y="290" text-anchor="middle" font-family="Arial, sans-serif" font-size="24" fill="#94a3b8">
    Evolution of Large Language Models
  </text>
  
  
  <path fill="url(#accentGradient)" d="M442,320 H838 A2,2 0 0 1 840,322 V322 A2,2 0 0 1 838,324 H442 A2,2 0 0 1 440,322 V322 A2,2 0 0 1 442,320 Z" />
  
  
  <g transform="translate(200, 380)">
    <path fill="#ffffff" opacity="0.05" d="M12,0 H868 A12,12 0 0 1 880,12 V248 A12,12 0 0 1 868,260 H12 A12,12 0 0 1 0,248 V12 A12,12 0 0 1 12,0 Z" />
    
    
    <circle cx="80" cy="70" r="20" fill="none" stroke="url(#accentGradient)" stroke-width="3" />
    <text x="80" y="78" text-anchor="middle" font-family="Arial, sans-serif" font-size="16" font-weight="bold" fill="#00d4ff">1</text>
    <text x="120" y="60" font-family="Microsoft YaHei, Arial, sans-serif" font-size="24" font-weight="bold" fill="#ffffff">高效小型化</text>
    <text x="120" y="95" font-family="Arial, sans-serif" font-size="16" fill="#94a3b8">Smaller, more efficient models with better performance</text>
    
    
    <circle cx="80" cy="160" r="20" fill="none" stroke="url(#accentGradient)" stroke-width="3" />
    <text x="80" y="168" text-anchor="middle" font-family="Arial, sans-serif" font-size="16" font-weight="bold" fill="#00d4ff">2</text>
    <text x="120" y="150" font-family="Microsoft YaHei, Arial, sans-serif" font-size="24" font-weight="bold" fill="#ffffff">领域专业化</text>
    <text x="120" y="185" font-family="Arial, sans-serif" font-size="16" fill="#94a3b8">Domain-specific LLMs for industry applications</text>
    
    
    <circle cx="80" cy="250" r="20" fill="none" stroke="url(#accentGradient)" stroke-width="3" />
    <text x="80" y="258" text-anchor="middle" font-family="Arial, sans-serif" font-size="16" font-weight="bold" fill="#00d4ff">3</text>
    <text x="120" y="240" font-family="Microsoft YaHei, Arial, sans-serif" font-size="24" font-weight="bold" fill="#ffffff">推理能力增强</text>
    <text x="120" y="275" font-family="Arial, sans-serif" font-size="16" fill="#94a3b8">Advanced reasoning and logical thinking capabilities</text>
  </g>
  
  
  <text x="1220" y="700" text-anchor="end" font-family="Arial, sans-serif" font-size="14" fill="#64748b">3 / 10</text>
</svg>